<svg aria-hidden="true" style="position: absolute; width: 0; height: 0; overflow: hidden;" version="1.1"
  xmlns="http://www.w3.org/2000/svg" xmlns:xlink="http://www.w3.org/1999/xlink">
  <defs>
    <symbol id="icon-calendar" viewBox="0 0 32 32">
      <path stroke-linejoin="round" stroke-linecap="round" stroke-miterlimit="4" stroke-width="2.88"
        d="M25.333 5.333h-18.667c-1.473 0-2.667 1.194-2.667 2.667v18.667c0 1.473 1.194 2.667 2.667 2.667h18.667c1.473 0 2.667-1.194 2.667-2.667v-18.667c0-1.473-1.194-2.667-2.667-2.667z">
      </path>
      <path stroke-linejoin="round" stroke-linecap="round" stroke-miterlimit="4" stroke-width="2.88"
        d="M21.333 2.667v5.333"></path>
      <path stroke-linejoin="round" stroke-linecap="round" stroke-miterlimit="4" stroke-width="2.88"
        d="M10.667 2.667v5.333"></path>
      <path stroke-linejoin="round" stroke-linecap="round" stroke-miterlimit="4" stroke-width="2.88" d="M4 13.333h24">
      </path>
    </symbol>
    <symbol id="icon-check" viewBox="0 0 32 32">
      <path fill="none" stroke="#08aa83" style="stroke: var(--color1, #08aa83)" stroke-linejoin="round"
        stroke-linecap="round" stroke-miterlimit="4" stroke-width="2.1818" d="M26.667 9.333l-14.667 14.667-6.667-6.667">
      </path>
    </symbol>
    <symbol id="icon-chevron-down" viewBox="0 0 32 32">
      <path stroke-linejoin="round" stroke-linecap="round" stroke-miterlimit="4" stroke-width="3.5556"
        d="M8 12l8 8 8-8"></path>
    </symbol>
    <symbol id="icon-cross-small" viewBox="0 0 32 32">
      <path fill="none" stroke="#ef2447" style="stroke: var(--color2, #ef2447)" stroke-linejoin="round"
        stroke-linecap="round" stroke-miterlimit="4" stroke-width="2.9091"
        d="M25.333 6.667l-18.667 18.667M6.666 6.667l18.667 18.667"></path>
    </symbol>
    <symbol id="icon-eye" viewBox="0 0 32 32">
      <path fill="none" stroke="#f6b83d" style="stroke: var(--color3, #f6b83d)" stroke-linejoin="round"
        stroke-linecap="round" stroke-miterlimit="4" stroke-width="2.9091"
        d="M1.332 16c0 0 5.333-10.667 14.667-10.667s14.667 10.667 14.667 10.667-5.333 10.667-14.667 10.667c-9.333 0-14.667-10.667-14.667-10.667z">
      </path>
      <path fill="none" stroke="#f6b83d" style="stroke: var(--color3, #f6b83d)" stroke-linejoin="round"
        stroke-linecap="round" stroke-miterlimit="4" stroke-width="2.9091"
        d="M16 20c2.209 0 4-1.791 4-4s-1.791-4-4-4c-2.209 0-4 1.791-4 4s1.791 4 4 4z"></path>
    </symbol>
    <symbol id="icon-eye-off" viewBox="0 0 32 32">
      <path fill="none" stroke="#f6b83d" style="stroke: var(--color3, #f6b83d)" stroke-linejoin="round"
        stroke-linecap="round" stroke-miterlimit="4" stroke-width="2.9091"
        d="M23.922 23.92c-2.279 1.737-5.055 2.7-7.92 2.747-9.333 0-14.667-10.667-14.667-10.667 1.659-3.091 3.959-5.791 6.747-7.92M13.202 5.653c0.918-0.215 1.857-0.322 2.8-0.32 9.333 0 14.667 10.667 14.667 10.667-0.809 1.514-1.775 2.94-2.88 4.253M18.828 18.827c-0.366 0.393-0.808 0.708-1.298 0.927s-1.020 0.336-1.557 0.346c-0.537 0.009-1.071-0.089-1.569-0.291s-0.951-0.5-1.33-0.88c-0.38-0.38-0.679-0.832-0.88-1.33s-0.3-1.032-0.29-1.569c0.009-0.537 0.127-1.067 0.346-1.557s0.534-0.932 0.927-1.298">
      </path>
      <path fill="none" stroke="#f6b83d" style="stroke: var(--color3, #f6b83d)" stroke-linejoin="round"
        stroke-linecap="round" stroke-miterlimit="4" stroke-width="2.9091" d="M1.335 1.333l29.333 29.333"></path>
    </symbol>
    <symbol id="icon-icon" viewBox="0 0 32 32">
      <path fill="#fff4df" style="fill: var(--color4, #fff4df)"
        d="M32 16c0 8.837-7.163 16-16 16s-16-7.163-16-16c0-8.837 7.163-16 16-16s16 7.163 16 16z"></path>
      <path fill="#f6b83d" style="fill: var(--color3, #f6b83d); stroke: var(--color3, #f6b83d)" stroke="#f6b83d"
        stroke-linejoin="round" stroke-linecap="round" stroke-miterlimit="4" stroke-width="1.28"
        d="M16 17.92c-2.029 0-3.833 0.98-4.982 2.5-0.247 0.327-0.371 0.491-0.367 0.712 0.003 0.171 0.11 0.386 0.245 0.492 0.174 0.137 0.415 0.137 0.897 0.137h8.413c0.482 0 0.723 0 0.897-0.137 0.134-0.105 0.242-0.321 0.245-0.492 0.004-0.221-0.12-0.385-0.367-0.712-1.149-1.52-2.953-2.5-4.982-2.5z">
      </path>
      <path fill="#f6b83d" style="fill: var(--color3, #f6b83d); stroke: var(--color3, #f6b83d)" stroke="#f6b83d"
        stroke-linejoin="round" stroke-linecap="round" stroke-miterlimit="4" stroke-width="1.28"
        d="M16 16c1.591 0 2.88-1.289 2.88-2.88s-1.289-2.88-2.88-2.88c-1.591 0-2.88 1.289-2.88 2.88s1.289 2.88 2.88 2.88z">
      </path>
    </symbol>
    <symbol id="icon-search" viewBox="0 0 32 32">
      <path stroke-linejoin="round" stroke-linecap="round" stroke-miterlimit="4" stroke-width="3.5556"
        d="M14.667 25.333c5.891 0 10.667-4.776 10.667-10.667s-4.776-10.667-10.667-10.667c-5.891 0-10.667 4.776-10.667 10.667s4.776 10.667 10.667 10.667z">
      </path>
      <path stroke-linejoin="round" stroke-linecap="round" stroke-miterlimit="4" stroke-width="3.5556"
        d="M28.001 28l-5.8-5.8"></path>
    </symbol>
    <symbol id="icon-star" viewBox="0 0 32 32">
      <path fill="#ffc531" style="fill: var(--color5, #ffc531); stroke: var(--color5, #ffc531)" stroke="#ffc531"
        stroke-linejoin="miter" stroke-linecap="butt" stroke-miterlimit="4" stroke-width="2.4"
        d="M12.4 9.394l3.6-6.822 3.6 6.822c0.318 0.603 0.899 1.025 1.571 1.141l7.601 1.315-5.376 5.532c-0.475 0.489-0.697 1.171-0.6 1.846l1.098 7.635-6.922-3.404c-0.612-0.301-1.329-0.301-1.941 0l-6.922 3.404 1.098-7.635c0.097-0.675-0.125-1.357-0.6-1.846l-5.376-5.532 7.601-1.315c0.672-0.116 1.252-0.538 1.571-1.141zM29.035 11.579v0zM7.767 27.031c0 0 0 0 0 0h-0z">
      </path>
    </symbol>
    <symbol id="icon-x" viewBox="0 0 32 32">
      <path stroke-linejoin="round" stroke-linecap="round" stroke-miterlimit="4" stroke-width="2.5" d="M24 8l-16 16">
      </path>
      <path stroke-linejoin="round" stroke-linecap="round" stroke-miterlimit="4" stroke-width="2.5" d="M8 8l16 16">
      </path>
    </symbol>
  </defs>
</svg>