<svg aria-hidden="true" style="position: absolute; width: 0; height: 0; overflow: hidden;" version="1.1" xmlns="http://www.w3.org/2000/svg" xmlns:xlink="http://www.w3.org/1999/xlink">
<defs>
<symbol id="icon-female-1" viewBox="0 0 32 32">
<path fill="#f43f5e" style="fill: var(--color1, #f43f5e)" d="M16 0c8.837 0 16 7.163 16 16s-7.163 16-16 16c-8.837 0-16-7.163-16-16s7.163-16 16-16z"></path>
<path fill="none" stroke="#fff" style="stroke: var(--color2, #fff)" stroke-linejoin="round" stroke-linecap="round" stroke-miterlimit="4" stroke-width="1.2" d="M16 16.8c2.209 0 4-1.791 4-4s-1.791-4-4-4c-2.209 0-4 1.791-4 4s1.791 4 4 4zM16 16.8v6.4M13.6 20.8h4.8"></path>
</symbol>
<symbol id="icon-female" viewBox="0 0 32 32">
<path fill="#f43f5e" style="fill: var(--color1, #f43f5e)" opacity="0.1" d="M16 0c8.837 0 16 7.163 16 16s-7.163 16-16 16c-8.837 0-16-7.163-16-16s7.163-16 16-16z"></path>
<path fill="none" stroke="#f43f5e" style="stroke: var(--color1, #f43f5e)" stroke-linejoin="round" stroke-linecap="round" stroke-miterlimit="4" stroke-width="1.2" d="M16 16.8c2.209 0 4-1.791 4-4s-1.791-4-4-4c-2.209 0-4 1.791-4 4s1.791 4 4 4zM16 16.8v6.4M13.6 20.8h4.8"></path>
</symbol>
<symbol id="icon-male-1" viewBox="0 0 32 32">
<path fill="#54adff" style="fill: var(--color3, #54adff)" d="M16 0c8.837 0 16 7.163 16 16s-7.163 16-16 16c-8.837 0-16-7.163-16-16s7.163-16 16-16z"></path>
<path fill="none" stroke="#fff" style="stroke: var(--color2, #fff)" stroke-linejoin="round" stroke-linecap="round" stroke-miterlimit="4" stroke-width="1.2" d="M16 15.2c-2.209 0-4 1.791-4 4s1.791 4 4 4c2.209 0 4-1.791 4-4s-1.791-4-4-4zM16 15.2v-6.4M16 8.8l3.2 3.2M16 8.8l-3.2 3.2"></path>
</symbol>
<symbol id="icon-male" viewBox="0 0 32 32">
<path fill="#54adff" style="fill: var(--color3, #54adff)" opacity="0.1" d="M16 0c8.837 0 16 7.163 16 16s-7.163 16-16 16c-8.837 0-16-7.163-16-16s7.163-16 16-16z"></path>
<path fill="none" stroke="#54adff" style="stroke: var(--color3, #54adff)" stroke-linejoin="round" stroke-linecap="round" stroke-miterlimit="4" stroke-width="1.2" d="M16 15.2c-2.209 0-4 1.791-4 4s1.791 4 4 4c2.209 0 4-1.791 4-4s-1.791-4-4-4zM16 15.2v-6.4M16 8.8l3.2 3.2M16 8.8l-3.2 3.2"></path>
</symbol>
<symbol id="icon-multiple-1" viewBox="0 0 32 32">
<path fill="#f6b83d" style="fill: var(--color4, #f6b83d)" d="M16 0c8.837 0 16 7.163 16 16s-7.163 16-16 16c-8.837 0-16-7.163-16-16s7.163-16 16-16z"></path>
<path fill="#fff" style="fill: var(--color2, #fff)" d="M13.417 12.596c-0.574-0.224-1.206-0.253-1.798-0.081s-1.111 0.534-1.476 1.031c-0.365 0.497-0.556 1.1-0.543 1.716s0.229 1.211 0.614 1.692c0.386 0.481 0.919 0.821 1.518 0.968s1.229 0.092 1.793-0.156c0.564-0.248 1.031-0.676 1.327-1.216s0.406-1.163 0.312-1.773c-0.008-0.052-0.006-0.105 0.007-0.156s0.035-0.099 0.066-0.141c0.031-0.042 0.070-0.078 0.115-0.105s0.095-0.045 0.147-0.053c0.052-0.008 0.105-0.006 0.156 0.007s0.099 0.035 0.141 0.066c0.042 0.031 0.078 0.070 0.105 0.115s0.045 0.095 0.053 0.147c0.121 0.783-0.021 1.584-0.402 2.279s-0.981 1.244-1.706 1.563c-0.725 0.319-1.536 0.389-2.305 0.201s-1.455-0.626-1.951-1.244c-0.496-0.618-0.773-1.383-0.79-2.175s0.229-1.568 0.698-2.206c0.469-0.639 1.136-1.104 1.897-1.325s1.574-0.184 2.312 0.104c0.050 0.019 0.095 0.047 0.134 0.083s0.070 0.080 0.091 0.128c0.022 0.048 0.033 0.101 0.035 0.154s-0.008 0.106-0.027 0.155c-0.019 0.049-0.048 0.094-0.085 0.132s-0.081 0.068-0.129 0.089c-0.049 0.021-0.101 0.032-0.154 0.033s-0.105-0.009-0.155-0.029z"></path>
<path fill="#fff" style="fill: var(--color2, #fff)" d="M11.998 22v-3.199c0-0.106 0.042-0.208 0.117-0.283s0.177-0.117 0.283-0.117c0.106 0 0.208 0.042 0.283 0.117s0.117 0.177 0.117 0.283v3.199c0 0.106-0.042 0.208-0.117 0.283s-0.177 0.117-0.283 0.117c-0.106 0-0.208-0.042-0.283-0.117s-0.117-0.177-0.117-0.283z"></path>
<path fill="#fff" style="fill: var(--color2, #fff)" d="M10.799 20.001c0-0.106 0.042-0.208 0.117-0.283s0.177-0.117 0.283-0.117h2.399c0.106 0 0.208 0.042 0.283 0.117s0.117 0.177 0.117 0.283c0 0.106-0.042 0.208-0.117 0.283s-0.177 0.117-0.283 0.117h-2.399c-0.106 0-0.208-0.042-0.283-0.117s-0.117-0.177-0.117-0.283zM17.957 12.509c-0.443-0.125-0.91-0.139-1.36-0.040s-0.868 0.307-1.218 0.606-0.621 0.68-0.789 1.109c-0.168 0.429-0.227 0.892-0.173 1.35 0.006 0.052 0.003 0.105-0.012 0.156s-0.038 0.098-0.071 0.14c-0.032 0.041-0.073 0.076-0.119 0.102s-0.096 0.042-0.149 0.048c-0.052 0.006-0.105 0.002-0.156-0.012s-0.098-0.039-0.139-0.071c-0.041-0.033-0.076-0.073-0.101-0.119s-0.042-0.097-0.048-0.149c-0.093-0.787 0.076-1.583 0.481-2.264s1.024-1.209 1.76-1.503c0.736-0.294 1.548-0.336 2.311-0.121s1.433 0.676 1.907 1.311c0.474 0.635 0.725 1.409 0.714 2.201s-0.283 1.559-0.774 2.181-1.174 1.064-1.942 1.259c-0.768 0.194-1.579 0.13-2.307-0.184-0.048-0.021-0.092-0.051-0.128-0.088s-0.065-0.082-0.085-0.131c-0.039-0.098-0.038-0.209 0.004-0.306s0.121-0.174 0.219-0.213c0.099-0.039 0.209-0.038 0.306 0.004 0.352 0.152 0.731 0.229 1.114 0.228s0.762-0.080 1.113-0.234c0.351-0.153 0.667-0.377 0.928-0.657s0.462-0.611 0.59-0.972c0.128-0.361 0.181-0.744 0.155-1.127s-0.13-0.755-0.306-1.095-0.42-0.641-0.717-0.883c-0.297-0.242-0.64-0.421-1.009-0.525z"></path>
<path fill="#fff" style="fill: var(--color2, #fff)" d="M19.513 13.286c-0.075-0.075-0.117-0.177-0.117-0.283s0.042-0.208 0.117-0.283l2.999-2.999c0.037-0.038 0.081-0.069 0.13-0.090s0.101-0.032 0.154-0.032c0.053-0 0.106 0.010 0.155 0.030s0.094 0.050 0.131 0.087c0.038 0.038 0.067 0.082 0.087 0.131s0.030 0.102 0.030 0.155c-0 0.053-0.012 0.106-0.032 0.154s-0.051 0.093-0.090 0.13l-2.999 2.999c-0.075 0.075-0.177 0.117-0.283 0.117s-0.208-0.042-0.283-0.117z"></path>
<path fill="#fff" style="fill: var(--color2, #fff)" d="M22.764 12.404c-0.053-0.001-0.104-0.012-0.153-0.032s-0.092-0.051-0.129-0.088c-0.037-0.038-0.066-0.082-0.085-0.131s-0.029-0.101-0.028-0.153l0.020-1.589-1.589 0.020c-0.106 0.001-0.208-0.039-0.284-0.113s-0.119-0.175-0.121-0.281c-0.001-0.106 0.039-0.208 0.113-0.284s0.175-0.119 0.281-0.121l2.409-0.030-0.030 2.409c-0.001 0.052-0.012 0.104-0.032 0.153s-0.051 0.092-0.088 0.129-0.082 0.066-0.131 0.085c-0.049 0.020-0.101 0.029-0.153 0.028z"></path>
</symbol>
<symbol id="icon-multiple" viewBox="0 0 32 32">
<path fill="#fff4df" style="fill: var(--color5, #fff4df)" d="M16 0c8.837 0 16 7.163 16 16s-7.163 16-16 16c-8.837 0-16-7.163-16-16s7.163-16 16-16z"></path>
<path fill="#f6b83d" style="fill: var(--color4, #f6b83d)" d="M13.417 12.596c-0.574-0.224-1.206-0.253-1.798-0.081s-1.111 0.534-1.476 1.031c-0.365 0.497-0.556 1.1-0.543 1.716s0.229 1.211 0.614 1.692c0.386 0.481 0.919 0.821 1.518 0.968s1.229 0.092 1.793-0.156c0.564-0.248 1.031-0.676 1.327-1.216s0.406-1.163 0.312-1.773c-0.008-0.052-0.006-0.105 0.007-0.156s0.035-0.099 0.066-0.141c0.031-0.042 0.070-0.078 0.115-0.105s0.095-0.045 0.147-0.053c0.052-0.008 0.105-0.006 0.156 0.007s0.099 0.035 0.141 0.066c0.042 0.031 0.078 0.070 0.105 0.115s0.045 0.095 0.053 0.147c0.121 0.783-0.021 1.584-0.402 2.279s-0.981 1.244-1.706 1.563c-0.725 0.319-1.536 0.389-2.305 0.201s-1.455-0.626-1.951-1.244c-0.496-0.618-0.773-1.383-0.79-2.175s0.229-1.568 0.698-2.206c0.469-0.639 1.136-1.104 1.897-1.325s1.574-0.184 2.312 0.104c0.050 0.019 0.095 0.047 0.134 0.083s0.070 0.080 0.091 0.128c0.022 0.048 0.033 0.101 0.035 0.154s-0.008 0.106-0.027 0.155c-0.019 0.049-0.048 0.094-0.085 0.132s-0.081 0.068-0.129 0.089c-0.049 0.021-0.101 0.032-0.154 0.033s-0.105-0.009-0.155-0.029z"></path>
<path fill="#f6b83d" style="fill: var(--color4, #f6b83d)" d="M11.998 22v-3.199c0-0.106 0.042-0.208 0.117-0.283s0.177-0.117 0.283-0.117c0.106 0 0.208 0.042 0.283 0.117s0.117 0.177 0.117 0.283v3.199c0 0.106-0.042 0.208-0.117 0.283s-0.177 0.117-0.283 0.117c-0.106 0-0.208-0.042-0.283-0.117s-0.117-0.177-0.117-0.283z"></path>
<path fill="#f6b83d" style="fill: var(--color4, #f6b83d)" d="M10.799 20.001c0-0.106 0.042-0.208 0.117-0.283s0.177-0.117 0.283-0.117h2.399c0.106 0 0.208 0.042 0.283 0.117s0.117 0.177 0.117 0.283c0 0.106-0.042 0.208-0.117 0.283s-0.177 0.117-0.283 0.117h-2.399c-0.106 0-0.208-0.042-0.283-0.117s-0.117-0.177-0.117-0.283zM17.957 12.509c-0.443-0.125-0.91-0.139-1.36-0.040s-0.868 0.307-1.218 0.606-0.621 0.68-0.789 1.109c-0.168 0.429-0.227 0.892-0.173 1.35 0.006 0.052 0.003 0.105-0.012 0.156s-0.038 0.098-0.071 0.14c-0.032 0.041-0.073 0.076-0.119 0.102s-0.096 0.042-0.149 0.049c-0.052 0.006-0.105 0.002-0.156-0.012s-0.098-0.039-0.139-0.071c-0.041-0.033-0.076-0.073-0.101-0.119s-0.042-0.097-0.048-0.149c-0.093-0.787 0.076-1.583 0.481-2.264s1.024-1.209 1.76-1.503c0.736-0.294 1.548-0.336 2.311-0.121s1.433 0.676 1.907 1.311c0.474 0.635 0.725 1.409 0.714 2.201s-0.283 1.559-0.774 2.181-1.174 1.064-1.942 1.259c-0.768 0.194-1.579 0.13-2.307-0.184-0.048-0.021-0.092-0.051-0.128-0.088s-0.065-0.082-0.085-0.131c-0.039-0.098-0.038-0.209 0.004-0.306s0.121-0.174 0.219-0.213c0.099-0.039 0.209-0.038 0.306 0.004 0.352 0.152 0.731 0.229 1.114 0.228s0.762-0.080 1.113-0.234c0.351-0.153 0.667-0.377 0.928-0.657s0.462-0.611 0.59-0.972c0.128-0.361 0.181-0.744 0.155-1.127s-0.13-0.755-0.306-1.095-0.42-0.641-0.717-0.883c-0.297-0.242-0.64-0.421-1.009-0.525z"></path>
<path fill="#f6b83d" style="fill: var(--color4, #f6b83d)" d="M19.513 13.286c-0.075-0.075-0.117-0.177-0.117-0.283s0.042-0.208 0.117-0.283l2.999-2.999c0.037-0.038 0.081-0.069 0.13-0.090s0.101-0.032 0.154-0.032c0.053-0 0.106 0.010 0.155 0.030s0.094 0.050 0.131 0.087c0.038 0.038 0.067 0.082 0.087 0.131s0.030 0.102 0.030 0.155c-0 0.053-0.012 0.106-0.032 0.154s-0.051 0.093-0.090 0.13l-2.999 2.999c-0.075 0.075-0.177 0.117-0.283 0.117s-0.208-0.042-0.283-0.117z"></path>
<path fill="#f6b83d" style="fill: var(--color4, #f6b83d)" d="M22.764 12.404c-0.053-0.001-0.104-0.012-0.153-0.032s-0.092-0.051-0.129-0.088c-0.037-0.038-0.066-0.082-0.085-0.131s-0.029-0.101-0.028-0.153l0.020-1.589-1.589 0.020c-0.106 0.001-0.208-0.039-0.284-0.113s-0.119-0.175-0.121-0.281c-0.001-0.106 0.039-0.208 0.113-0.284s0.175-0.119 0.281-0.121l2.409-0.030-0.030 2.409c-0.001 0.052-0.012 0.104-0.032 0.153s-0.051 0.092-0.088 0.129-0.082 0.066-0.131 0.085c-0.049 0.020-0.101 0.029-0.153 0.028z"></path>
</symbol>
</defs>
</svg>
