<svg aria-hidden="true" style="position: absolute; width: 0; height: 0; overflow: hidden;" version="1.1"
  xmlns="http://www.w3.org/2000/svg" xmlns:xlink="http://www.w3.org/1999/xlink">
  <defs>
    <symbol id="icon-deleteHover" viewBox="0 0 32 32">
      <path fill="#fbe7c1" style="fill: var(--color1, #fbe7c1)"
        d="M16 0c8.837 0 16 7.163 16 16s-7.163 16-16 16c-8.837 0-16-7.163-16-16s7.163-16 16-16z"></path>
      <path fill="none" stroke="#f6b83d" style="stroke: var(--color2, #f6b83d)" stroke-linejoin="round"
        stroke-linecap="round" stroke-miterlimit="4" stroke-width="1.0909" d="M11.091 12.727h9.818"></path>
      <path fill="none" stroke="#f6b83d" style="stroke: var(--color2, #f6b83d)" stroke-linejoin="round"
        stroke-linecap="round" stroke-miterlimit="4" stroke-width="1.0909"
        d="M19.818 12.727v7.636c0 0.289-0.115 0.567-0.32 0.771s-0.482 0.32-0.771 0.32h-5.455c-0.289 0-0.567-0.115-0.771-0.32s-0.319-0.482-0.319-0.771v-7.636M13.818 12.727v-1.091c0-0.289 0.115-0.567 0.319-0.771s0.482-0.319 0.771-0.319h2.182c0.289 0 0.567 0.115 0.771 0.319s0.32 0.482 0.32 0.771v1.091">
      </path>
      <path fill="none" stroke="#f6b83d" style="stroke: var(--color2, #f6b83d)" stroke-linejoin="round"
        stroke-linecap="round" stroke-miterlimit="4" stroke-width="1.0909" d="M14.909 15.455v3.273"></path>
      <path fill="none" stroke="#f6b83d" style="stroke: var(--color2, #f6b83d)" stroke-linejoin="round"
        stroke-linecap="round" stroke-miterlimit="4" stroke-width="1.0909" d="M17.091 15.455v3.273"></path>
    </symbol>
    <symbol id="icon-editHover" viewBox="0 0 32 32">
      <path fill="#fbe7c1" style="fill: var(--color1, #fbe7c1)"
        d="M16 0c8.837 0 16 7.163 16 16s-7.163 16-16 16c-8.837 0-16-7.163-16-16s7.163-16 16-16z"></path>
      <path fill="none" stroke="#f6b83d" style="stroke: var(--color2, #f6b83d)" stroke-linejoin="round"
        stroke-linecap="round" stroke-miterlimit="4" stroke-width="1.2632"
        d="M19.158 10.316c0.166-0.166 0.363-0.297 0.58-0.387s0.449-0.136 0.684-0.136c0.235 0 0.467 0.046 0.684 0.136s0.414 0.221 0.58 0.387c0.166 0.166 0.297 0.363 0.387 0.58s0.136 0.449 0.136 0.684c0 0.235-0.046 0.467-0.136 0.684s-0.221 0.414-0.387 0.58l-8.526 8.526-3.474 0.947 0.947-3.474 8.526-8.526z">
      </path>
    </symbol>
    <symbol id="icon-favoriteHover" viewBox="0 0 32 32">
      <path fill="#fbe7c1" style="fill: var(--color1, #fbe7c1)"
        d="M16 0c8.837 0 16 7.163 16 16s-7.163 16-16 16c-8.837 0-16-7.163-16-16s7.163-16 16-16z"></path>
      <path fill="none" stroke="#f6b83d" style="stroke: var(--color2, #f6b83d)" stroke-linejoin="round"
        stroke-linecap="round" stroke-miterlimit="4" stroke-width="1"
        d="M20.42 12.305c-0.255-0.256-0.559-0.458-0.892-0.596s-0.691-0.209-1.053-0.209c-0.361 0-0.719 0.071-1.053 0.209s-0.637 0.341-0.892 0.596l-0.53 0.53-0.53-0.53c-0.516-0.516-1.215-0.806-1.945-0.806s-1.429 0.29-1.945 0.806c-0.516 0.516-0.806 1.215-0.806 1.945s0.29 1.429 0.806 1.945l4.42 4.42 4.42-4.42c0.255-0.255 0.458-0.559 0.596-0.892s0.209-0.691 0.209-1.053-0.071-0.719-0.209-1.053c-0.138-0.334-0.341-0.637-0.596-0.892z">
      </path>
    </symbol>
    <symbol id="icon-deleteNormal" viewBox="0 0 32 32">
      <path fill="#fff4df" style="fill: var(--color3, #fff4df)"
        d="M16 0c8.837 0 16 7.163 16 16s-7.163 16-16 16c-8.837 0-16-7.163-16-16s7.163-16 16-16z"></path>
      <path fill="none" stroke="#f6b83d" style="stroke: var(--color2, #f6b83d)" stroke-linejoin="round"
        stroke-linecap="round" stroke-miterlimit="4" stroke-width="1.0909" d="M11.091 12.727h9.818"></path>
      <path fill="none" stroke="#f6b83d" style="stroke: var(--color2, #f6b83d)" stroke-linejoin="round"
        stroke-linecap="round" stroke-miterlimit="4" stroke-width="1.0909"
        d="M19.818 12.727v7.636c0 0.289-0.115 0.567-0.32 0.771s-0.482 0.32-0.771 0.32h-5.455c-0.289 0-0.567-0.115-0.771-0.32s-0.319-0.482-0.319-0.771v-7.636M13.818 12.727v-1.091c0-0.289 0.115-0.567 0.319-0.771s0.482-0.319 0.771-0.319h2.182c0.289 0 0.567 0.115 0.771 0.319s0.32 0.482 0.32 0.771v1.091">
      </path>
      <path fill="none" stroke="#f6b83d" style="stroke: var(--color2, #f6b83d)" stroke-linejoin="round"
        stroke-linecap="round" stroke-miterlimit="4" stroke-width="1.0909" d="M14.909 15.455v3.273"></path>
      <path fill="none" stroke="#f6b83d" style="stroke: var(--color2, #f6b83d)" stroke-linejoin="round"
        stroke-linecap="round" stroke-miterlimit="4" stroke-width="1.0909" d="M17.091 15.455v3.273"></path>
    </symbol>
    <symbol id="icon-editNormal" viewBox="0 0 32 32">
      <path fill="#fff4df" style="fill: var(--color3, #fff4df)"
        d="M16 0c8.837 0 16 7.163 16 16s-7.163 16-16 16c-8.837 0-16-7.163-16-16s7.163-16 16-16z"></path>
      <path fill="none" stroke="#f6b83d" style="stroke: var(--color2, #f6b83d)" stroke-linejoin="round"
        stroke-linecap="round" stroke-miterlimit="4" stroke-width="1.2632"
        d="M19.158 10.316c0.166-0.166 0.363-0.297 0.58-0.387s0.449-0.136 0.684-0.136c0.235 0 0.467 0.046 0.684 0.136s0.414 0.221 0.58 0.387c0.166 0.166 0.297 0.363 0.387 0.58s0.136 0.449 0.136 0.684c0 0.235-0.046 0.467-0.136 0.684s-0.221 0.414-0.387 0.58l-8.526 8.526-3.474 0.947 0.947-3.474 8.526-8.526z">
      </path>
    </symbol>
    <symbol id="icon-favoriteNormal" viewBox="0 0 32 32">
      <path fill="#fff4df" style="fill: var(--color3, #fff4df)"
        d="M16 0c8.837 0 16 7.163 16 16s-7.163 16-16 16c-8.837 0-16-7.163-16-16s7.163-16 16-16z"></path>
      <path fill="none" stroke="#f6b83d" style="stroke: var(--color2, #f6b83d)" stroke-linejoin="round"
        stroke-linecap="round" stroke-miterlimit="4" stroke-width="1"
        d="M20.42 12.305c-0.255-0.256-0.559-0.458-0.892-0.596s-0.691-0.209-1.053-0.209c-0.361 0-0.719 0.071-1.053 0.209s-0.637 0.341-0.892 0.596l-0.53 0.53-0.53-0.53c-0.516-0.516-1.215-0.806-1.945-0.806s-1.429 0.29-1.945 0.806c-0.516 0.516-0.806 1.215-0.806 1.945s0.29 1.429 0.806 1.945l4.42 4.42 4.42-4.42c0.255-0.255 0.458-0.559 0.596-0.892s0.209-0.691 0.209-1.053-0.071-0.719-0.209-1.053c-0.138-0.334-0.341-0.637-0.596-0.892z">
      </path>
    </symbol>
  </defs>
</svg>