<svg aria-hidden="true" style="position: absolute; width: 0; height: 0; overflow: hidden;" version="1.1" xmlns="http://www.w3.org/2000/svg" xmlns:xlink="http://www.w3.org/1999/xlink">
<defs>
<symbol id="icon-upload-cloud" viewBox="0 0 32 32">
<path fill="none" stroke="#f6b83d" style="stroke: var(--color1, #f6b83d)" stroke-linejoin="round" stroke-linecap="round" stroke-miterlimit="4" stroke-width="2.3111" d="M16 16v12"></path>
<path fill="none" stroke="#f6b83d" style="stroke: var(--color1, #f6b83d)" stroke-linejoin="round" stroke-linecap="round" stroke-miterlimit="4" stroke-width="2.3111" d="M27.187 24.52c1.3-0.709 2.328-1.831 2.92-3.188s0.715-2.874 0.35-4.309-1.198-2.708-2.367-3.618c-1.169-0.909-2.608-1.404-4.089-1.405h-1.68c-0.404-1.561-1.156-3.010-2.2-4.239s-2.353-2.204-3.829-2.854-3.079-0.956-4.691-0.897c-1.611 0.059-3.188 0.483-4.612 1.24s-2.658 1.826-3.609 3.128c-0.951 1.302-1.595 2.803-1.882 4.389s-0.212 3.217 0.222 4.77c0.433 1.553 1.213 2.988 2.281 4.196"></path>
<path fill="none" stroke="#f6b83d" style="stroke: var(--color1, #f6b83d)" stroke-linejoin="round" stroke-linecap="round" stroke-miterlimit="4" stroke-width="2.3111" d="M21.333 21.333l-5.333-5.333-5.333 5.333"></path>
</symbol>
</defs>
</svg>
