<svg aria-hidden="true" style="position: absolute; width: 32; height: 32; overflow: hidden;" version="1.1"
  xmlns="http://www.w3.org/2000/svg" xmlns:xlink="http://www.w3.org/1999/xlink">
  <defs>
    <symbol id="icon-slider-1" viewBox="0 0 32 32">
      <path fill="none" stroke="#262626" style="stroke: var(--color1, #262626)" stroke-linejoin="miter"
        stroke-linecap="butt" stroke-miterlimit="4" stroke-width="0.7273"
        d="M31.636 16c0 8.636-7.001 15.636-15.636 15.636s-15.636-7.001-15.636-15.636c0-8.636 7.001-15.636 15.636-15.636s15.636 7.001 15.636 15.636z">
      </path>
      <path
        d="M14.982 16.516c-0.068-0.068-0.122-0.148-0.159-0.237s-0.056-0.184-0.056-0.28 0.019-0.191 0.056-0.28c0.037-0.089 0.091-0.169 0.159-0.237l3.338-3.331c0.068-0.068 0.122-0.148 0.159-0.237s0.056-0.184 0.056-0.28-0.019-0.191-0.056-0.28c-0.037-0.089-0.091-0.169-0.159-0.237-0.136-0.136-0.321-0.211-0.513-0.211s-0.376 0.076-0.513 0.211l-3.338 3.338c-0.409 0.409-0.638 0.964-0.638 1.542s0.229 1.133 0.638 1.542l3.338 3.338c0.136 0.134 0.318 0.21 0.509 0.211 0.096 0.001 0.191-0.018 0.279-0.054s0.169-0.090 0.237-0.157c0.068-0.068 0.122-0.148 0.159-0.237s0.056-0.184 0.056-0.28-0.019-0.191-0.056-0.28c-0.037-0.089-0.091-0.169-0.159-0.237l-3.338-3.331z">
      </path>
    </symbol>
    <symbol id="icon-slider-2" viewBox="0 0 32 32">
      <path fill="none" stroke="#262626" style="stroke: var(--color1, #262626)" stroke-linejoin="miter"
        stroke-linecap="butt" stroke-miterlimit="4" stroke-width="0.7273"
        d="M31.636 16c0 8.636-7.001 15.636-15.636 15.636s-15.636-7.001-15.636-15.636c0-8.636 7.001-15.636 15.636-15.636s15.636 7.001 15.636 15.636z">
      </path>
      <path
        d="M17.018 16.516c0.068-0.068 0.122-0.148 0.159-0.237s0.056-0.184 0.056-0.28c0-0.096-0.019-0.191-0.056-0.28s-0.091-0.169-0.159-0.237l-3.338-3.331c-0.068-0.068-0.122-0.148-0.159-0.237s-0.056-0.184-0.056-0.28 0.019-0.191 0.056-0.28c0.037-0.089 0.091-0.169 0.159-0.237 0.136-0.135 0.321-0.211 0.513-0.211s0.376 0.076 0.513 0.211l3.338 3.338c0.409 0.409 0.638 0.964 0.638 1.542s-0.229 1.133-0.638 1.542l-3.338 3.338c-0.136 0.134-0.318 0.21-0.509 0.211-0.096 0.001-0.191-0.018-0.279-0.054s-0.169-0.090-0.237-0.157c-0.068-0.068-0.122-0.148-0.159-0.237s-0.056-0.184-0.056-0.28c0-0.096 0.019-0.191 0.056-0.28s0.091-0.169 0.159-0.237l3.338-3.331z">
      </path>
    </symbol>
    <symbol id="icon-slider-3" viewBox="0 0 32 32">
      <path fill="none" stroke="#262626" style="stroke: var(--color1, #262626)" stroke-linejoin="miter"
        stroke-linecap="butt" stroke-miterlimit="4" stroke-width="0.7273"
        d="M31.636 16c0 8.636-7.001 15.636-15.636 15.636s-15.636-7.001-15.636-15.636c0-8.636 7.001-15.636 15.636-15.636s15.636 7.001 15.636 15.636z">
      </path>
      <path
        d="M19.927 16.516c0.068-0.068 0.122-0.148 0.159-0.237s0.056-0.184 0.056-0.28c0-0.096-0.019-0.191-0.056-0.28s-0.091-0.169-0.159-0.237l-3.338-3.331c-0.068-0.068-0.122-0.148-0.159-0.237s-0.056-0.184-0.056-0.28 0.019-0.191 0.056-0.28c0.037-0.089 0.091-0.169 0.159-0.237 0.136-0.135 0.321-0.211 0.513-0.211s0.376 0.076 0.513 0.211l3.338 3.338c0.409 0.409 0.638 0.964 0.638 1.542s-0.229 1.133-0.638 1.542l-3.338 3.338c-0.136 0.134-0.318 0.21-0.509 0.211-0.096 0-0.191-0.018-0.279-0.054s-0.169-0.090-0.237-0.157c-0.068-0.068-0.122-0.148-0.159-0.237s-0.056-0.184-0.056-0.28c0-0.096 0.019-0.191 0.056-0.28s0.091-0.169 0.159-0.237l3.338-3.331z">
      </path>
      <path
        d="M14.836 16.516c0.068-0.068 0.122-0.148 0.159-0.237s0.056-0.184 0.056-0.28c0-0.096-0.019-0.191-0.056-0.28s-0.091-0.169-0.159-0.237l-3.338-3.331c-0.068-0.068-0.122-0.148-0.159-0.237s-0.056-0.184-0.056-0.28 0.019-0.191 0.056-0.28c0.037-0.089 0.091-0.169 0.159-0.237 0.136-0.135 0.321-0.211 0.513-0.211s0.376 0.076 0.513 0.211l3.338 3.338c0.409 0.409 0.638 0.964 0.638 1.542s-0.229 1.133-0.638 1.542l-3.338 3.338c-0.136 0.134-0.318 0.21-0.509 0.211-0.096 0-0.191-0.018-0.279-0.054s-0.169-0.090-0.237-0.157c-0.068-0.068-0.122-0.148-0.159-0.237s-0.056-0.184-0.056-0.28c0-0.096 0.019-0.191 0.056-0.28s0.091-0.169 0.159-0.237l3.338-3.331z">
      </path>
    </symbol>
    <symbol id="icon-slider" viewBox="0 0 32 32">
      <path fill="none" stroke="#262626" style="stroke: var(--color1, #262626)" stroke-linejoin="miter"
        stroke-linecap="butt" stroke-miterlimit="4" stroke-width="0.7273"
        d="M31.636 16c0 8.636-7.001 15.636-15.636 15.636s-15.636-7.001-15.636-15.636c0-8.636 7.001-15.636 15.636-15.636s15.636 7.001 15.636 15.636z">
      </path>
      <path
        d="M12.073 16.516c-0.068-0.068-0.122-0.148-0.159-0.237s-0.056-0.184-0.056-0.28 0.019-0.191 0.056-0.28c0.037-0.089 0.091-0.169 0.159-0.237l3.338-3.331c0.068-0.068 0.122-0.148 0.159-0.237s0.056-0.184 0.056-0.28-0.019-0.191-0.056-0.28c-0.037-0.089-0.091-0.169-0.159-0.237-0.136-0.136-0.321-0.211-0.513-0.211s-0.376 0.076-0.513 0.211l-3.338 3.338c-0.409 0.409-0.638 0.964-0.638 1.542s0.229 1.133 0.638 1.542l3.338 3.338c0.136 0.134 0.318 0.21 0.509 0.211 0.096 0.001 0.191-0.018 0.279-0.054s0.169-0.090 0.237-0.157c0.068-0.068 0.122-0.148 0.159-0.237s0.056-0.184 0.056-0.28-0.019-0.191-0.056-0.28c-0.037-0.089-0.091-0.169-0.159-0.237l-3.338-3.331z">
      </path>
      <path
        d="M17.164 16.516c-0.068-0.068-0.122-0.148-0.159-0.237s-0.056-0.184-0.056-0.28 0.019-0.191 0.056-0.28c0.037-0.089 0.091-0.169 0.159-0.237l3.338-3.331c0.068-0.068 0.122-0.148 0.159-0.237s0.056-0.184 0.056-0.28-0.019-0.191-0.056-0.28c-0.037-0.089-0.091-0.169-0.159-0.237-0.136-0.136-0.321-0.211-0.513-0.211s-0.376 0.076-0.513 0.211l-3.338 3.338c-0.409 0.409-0.638 0.964-0.638 1.542s0.229 1.133 0.638 1.542l3.338 3.338c0.136 0.134 0.318 0.21 0.509 0.211 0.096 0.001 0.191-0.018 0.279-0.054s0.169-0.090 0.237-0.157c0.068-0.068 0.122-0.148 0.159-0.237s0.056-0.184 0.056-0.28-0.019-0.191-0.056-0.28c-0.037-0.089-0.091-0.169-0.159-0.237l-3.338-3.331z">
      </path>
    </symbol>
  </defs>
</svg>