<svg aria-hidden="true" style="position: absolute; width: 0; height: 0; overflow: hidden;" version="1.1" xmlns="http://www.w3.org/2000/svg" xmlns:xlink="http://www.w3.org/1999/xlink">
<defs>
<symbol id="icon-image" viewBox="0 0 32 32">
<path fill="#fff4df" style="fill: var(--color1, #fff4df)" d="M16 0c8.837 0 16 7.163 16 16s-7.163 16-16 16c-8.837 0-16-7.163-16-16s7.163-16 16-16z"></path>
<path fill="#f6b83d" style="fill: var(--color2, #f6b83d)" d="M14.25 10.5c-0.535 0-1.001 0.304-1.297 0.719s-0.453 0.951-0.453 1.531c0 0.58 0.157 1.116 0.453 1.531s0.762 0.719 1.297 0.719c0.535 0 1.001-0.304 1.297-0.719s0.453-0.951 0.453-1.531c0-0.58-0.157-1.117-0.453-1.532s-0.762-0.719-1.297-0.719zM16 12.75c0 0.58 0.157 1.116 0.453 1.531s0.762 0.719 1.297 0.719c0.535 0 1.001-0.304 1.297-0.719s0.453-0.951 0.453-1.531c0-0.58-0.157-1.117-0.453-1.532s-0.762-0.719-1.297-0.719c-0.535 0-1.001 0.304-1.297 0.719s-0.453 0.951-0.453 1.531zM14.25 11.5c0.156 0 0.328 0.078 0.485 0.297 0.155 0.219 0.265 0.566 0.265 0.953s-0.11 0.735-0.265 0.953c-0.157 0.219-0.329 0.297-0.485 0.297s-0.328-0.078-0.485-0.297c-0.155-0.219-0.265-0.566-0.265-0.953s0.11-0.735 0.265-0.953c0.157-0.219 0.329-0.297 0.485-0.297zM17.75 11.5c0.156 0 0.328 0.078 0.485 0.297 0.155 0.219 0.265 0.566 0.265 0.953s-0.11 0.735-0.265 0.953c-0.157 0.219-0.329 0.297-0.485 0.297s-0.328-0.078-0.485-0.297c-0.155-0.219-0.265-0.566-0.265-0.953s0.11-0.735 0.265-0.953c0.157-0.219 0.329-0.297 0.485-0.297zM11.75 14c-0.535 0-1.001 0.304-1.297 0.719s-0.453 0.951-0.453 1.531c0 0.58 0.157 1.117 0.453 1.532s0.762 0.718 1.297 0.718c0.535 0 1.001-0.304 1.297-0.719s0.453-0.951 0.453-1.531c0-0.58-0.157-1.116-0.453-1.531s-0.762-0.719-1.297-0.719zM20.25 14c-0.535 0-1.001 0.304-1.297 0.719s-0.453 0.951-0.453 1.531c0 0.58 0.157 1.117 0.453 1.532s0.762 0.718 1.297 0.718c0.535 0 1.001-0.304 1.297-0.719s0.453-0.951 0.453-1.531c0-0.58-0.157-1.116-0.453-1.531s-0.762-0.719-1.297-0.719zM11.75 15c0.156 0 0.328 0.078 0.485 0.297 0.155 0.219 0.265 0.566 0.265 0.953s-0.11 0.735-0.265 0.953c-0.157 0.219-0.329 0.297-0.485 0.297s-0.328-0.078-0.485-0.297c-0.155-0.218-0.265-0.567-0.265-0.953s0.11-0.735 0.265-0.953c0.157-0.219 0.329-0.297 0.485-0.297zM20.25 15c0.156 0 0.328 0.078 0.485 0.297 0.155 0.219 0.265 0.566 0.265 0.953s-0.11 0.735-0.265 0.953c-0.157 0.219-0.329 0.297-0.485 0.297s-0.328-0.078-0.485-0.297c-0.155-0.218-0.265-0.567-0.265-0.953s0.11-0.735 0.265-0.953c0.157-0.219 0.329-0.297 0.485-0.297zM16 16c-0.666 0-1.131 0.433-1.36 0.813-0.227 0.38-0.367 0.696-0.5 0.828-0.077 0.078-0.559 0.26-1.062 0.516-0.252 0.129-0.505 0.3-0.719 0.563-0.215 0.263-0.36 0.625-0.36 1.032 0 0.96 0.79 1.75 1.75 1.75 0.433 0 0.885-0.14 1.327-0.265 0.445-0.128 0.923-0.236 0.923-0.236s0.479 0.108 0.922 0.235c0.443 0.125 0.895 0.265 1.328 0.265 0.96 0 1.75-0.79 1.75-1.75 0-0.397-0.146-0.76-0.36-1.015-0.213-0.257-0.469-0.415-0.718-0.548-0.5-0.265-0.991-0.475-1.063-0.547-0.12-0.119-0.255-0.445-0.485-0.827-0.23-0.383-0.705-0.814-1.374-0.814zM16 17c0.33 0 0.366 0.080 0.515 0.328 0.15 0.247 0.262 0.668 0.625 1.031 0.413 0.41 0.933 0.5 1.313 0.702 0.19 0.101 0.335 0.208 0.422 0.312s0.125 0.198 0.125 0.375c0 0.42-0.33 0.75-0.75 0.75-0.145 0-0.612-0.11-1.047-0.235-0.435-0.123-0.795-0.265-1.203-0.265s-0.768 0.142-1.203 0.265c-0.435 0.125-0.902 0.235-1.047 0.235-0.42 0-0.75-0.33-0.75-0.75 0-0.201 0.042-0.305 0.125-0.407s0.236-0.202 0.422-0.296c0.372-0.19 0.89-0.265 1.312-0.688 0.367-0.368 0.477-0.802 0.625-1.047 0.146-0.245 0.181-0.312 0.515-0.312l0.001 0.002z"></path>
</symbol>
</defs>
</svg>
